<?xml version="1.0" standalone="no"?>
<!DOCTYPE svg PUBLIC "-//W3C//DTD SVG 20010904//EN"
 "http://www.w3.org/TR/2001/REC-SVG-20010904/DTD/svg10.dtd">
<svg version="1.0" xmlns="http://www.w3.org/2000/svg"
 width="256.000000pt" height="256.000000pt" viewBox="0 0 256.000000 256.000000"
 preserveAspectRatio="xMidYMid meet">
<metadata>
Created by potrace 1.14, written by Peter Selinger 2001-2017
</metadata>
<g transform="translate(0.000000,256.000000) scale(0.100000,-0.100000)"
fill="#000000" stroke="none">
<path d="M1540 2210 l0 -210 -190 0 -190 0 0 -316 0 -316 -22 6 c-13 3 -35 6
-50 6 -25 0 -28 4 -28 35 0 33 -2 35 -35 35 -35 0 -35 0 -35 45 l0 45 -310 0
-310 0 0 -45 c0 -45 0 -45 -35 -45 -33 0 -35 -2 -35 -35 0 -34 -1 -35 -40 -35
l-40 0 0 -495 0 -495 40 0 40 0 0 -40 c0 -39 1 -40 35 -40 33 0 35 -2 35 -35
l0 -35 80 0 80 0 0 -40 0 -40 610 0 610 0 0 430 0 430 100 0 100 0 0 200 0
200 205 0 205 0 0 355 0 355 -35 0 -35 0 0 50 c0 28 -4 50 -9 50 -5 0 -13 10
-16 22 -4 11 -17 31 -29 42 -13 12 -25 29 -29 39 -3 9 -10 17 -16 17 -5 0 -11
9 -14 20 -3 11 -12 20 -21 20 -9 0 -16 7 -16 15 0 13 -40 15 -300 15 l-300 0
0 -210z"/>
</g>
</svg>
