<?xml version="1.0" standalone="no"?>
<!DOCTYPE svg PUBLIC "-//W3C//DTD SVG 20010904//EN"
 "http://www.w3.org/TR/2001/REC-SVG-20010904/DTD/svg10.dtd">
<svg version="1.0" xmlns="http://www.w3.org/2000/svg"
 width="400.000000pt" height="400.000000pt" viewBox="0 0 400.000000 400.000000"
 preserveAspectRatio="xMidYMid meet">
<metadata>
Created by potrace 1.14, written by Peter Selinger 2001-2017
</metadata>
<g transform="translate(0.000000,400.000000) scale(0.100000,-0.100000)"
fill="#000000" stroke="none">
<path d="M0 2000 l0 -2000 2000 0 2000 0 0 760 c0 433 -4 760 -9 760 -16 0
-20 41 -5 47 12 4 14 179 14 1219 l0 1214 -2000 0 -2000 0 0 -2000z m2522
1370 c2 -6 13 -12 26 -15 12 -2 27 -7 34 -11 6 -4 8 -3 5 4 -11 16 69 8 90
-10 10 -8 24 -13 31 -11 6 3 12 0 12 -5 0 -5 16 -13 35 -16 19 -4 35 -13 35
-20 0 -8 6 -16 14 -19 8 -3 17 -20 21 -37 5 -25 2 -37 -15 -55 -19 -20 -71
-40 -94 -36 -5 1 -5 -6 -1 -16 8 -21 8 -22 6 -48 -1 -17 -3 -18 -11 -5 -6 10
-10 11 -10 3 0 -7 -7 -13 -15 -13 -8 0 -15 -4 -15 -9 0 -21 -124 -32 -154 -14
-16 11 -56 11 -56 1 0 -18 -25 -6 -57 27 -27 28 -39 34 -59 29 -14 -4 -24 -2
-24 4 0 6 -9 13 -19 17 -18 6 -41 69 -41 114 0 21 53 51 91 51 15 0 19 7 19
34 0 39 14 53 35 36 9 -8 15 -8 20 0 3 6 11 8 16 5 5 -4 9 -2 9 4 0 5 11 8 25
6 14 -1 25 2 25 6 0 12 18 11 22 -1z m-137 -392 c6 -1 9 -6 8 -10 -2 -5 2 -8
7 -8 6 0 15 -11 21 -24 8 -16 17 -22 30 -19 11 3 29 -3 41 -13 12 -11 18 -13
14 -6 -4 6 -6 12 -4 13 2 0 25 3 51 6 43 4 49 3 54 -15 3 -11 12 -23 20 -26
13 -5 13 -9 2 -23 -13 -15 -11 -16 14 -11 18 4 30 1 34 -7 2 -7 24 -19 49 -26
24 -7 44 -17 44 -22 0 -4 5 -5 12 -1 7 4 8 3 4 -5 -5 -7 1 -20 14 -31 12 -10
20 -27 18 -36 -2 -10 2 -19 9 -19 20 0 54 -53 57 -90 2 -20 8 -41 14 -47 8 -8
4 -16 -11 -29 -12 -10 -16 -18 -9 -19 6 0 12 -7 12 -15 0 -8 12 -21 26 -28 23
-12 31 -12 55 0 16 8 29 19 29 25 0 5 7 8 15 4 8 -3 15 -1 15 4 0 6 6 10 14
10 8 0 22 10 30 22 13 18 16 19 16 5 0 -9 5 -17 10 -17 6 0 10 4 10 8 0 15
146 25 172 11 11 -6 18 -5 21 4 4 9 8 9 15 -2 9 -12 13 -12 26 -2 11 9 16 10
16 2 0 -6 7 -11 15 -11 28 0 95 -25 95 -35 0 -12 36 -45 43 -39 2 2 10 -2 16
-10 7 -8 19 -12 27 -9 10 4 12 0 8 -11 -3 -9 -1 -16 5 -16 6 0 11 -6 11 -14 0
-8 7 -16 15 -20 8 -3 15 -12 15 -21 0 -8 5 -15 10 -15 6 0 9 -12 8 -27 -1 -16
6 -42 14 -58 12 -22 15 -49 12 -100 -6 -98 -7 -104 -16 -99 -4 3 -8 -2 -8 -11
0 -9 -5 -13 -11 -9 -6 3 -3 -6 7 -22 11 -15 14 -25 7 -21 -7 5 -14 -4 -18 -25
-4 -18 -14 -42 -21 -53 -7 -11 -14 -35 -16 -52 -1 -17 -6 -29 -10 -27 -4 3 -8
-4 -8 -15 0 -12 -7 -21 -15 -21 -8 0 -15 -6 -15 -14 0 -8 -5 -16 -11 -18 -6
-2 -12 -15 -12 -30 -1 -14 -6 -24 -10 -21 -5 3 -14 -2 -20 -11 -7 -9 -22 -18
-33 -18 -18 -2 -20 -6 -14 -28 6 -22 3 -28 -19 -38 -38 -17 -73 -51 -65 -64 4
-6 3 -8 -3 -5 -6 4 -20 -4 -32 -17 -13 -13 -45 -39 -72 -57 -36 -25 -49 -40
-49 -58 0 -19 -3 -22 -12 -13 -9 9 -16 5 -32 -16 -13 -16 -30 -27 -43 -26 -15
1 -20 -3 -15 -14 3 -10 1 -13 -6 -8 -7 4 -12 2 -12 -3 0 -6 -7 -11 -15 -11 -7
0 -18 -6 -22 -14 -4 -8 -17 -16 -28 -18 -11 -2 -19 -9 -18 -16 2 -6 -4 -9 -12
-6 -9 4 -15 0 -15 -8 0 -12 -28 -45 -65 -76 -9 -8 -22 -11 -30 -8 -8 3 -14 2
-14 -2 3 -21 -5 -35 -46 -76 -25 -25 -48 -55 -50 -67 -5 -26 -25 -57 -60 -95
-14 -15 -24 -32 -22 -38 4 -13 -17 -36 -33 -36 -11 0 -35 -48 -31 -63 1 -5 -3
-6 -9 -2 -5 3 -24 -10 -42 -30 -18 -19 -39 -35 -45 -35 -7 0 -13 -5 -13 -11 0
-6 -6 -9 -14 -6 -8 3 -13 -1 -13 -11 0 -36 -4 -42 -22 -42 -11 0 -23 -5 -26
-10 -4 -6 -10 -8 -15 -5 -5 3 -16 -3 -26 -12 -21 -21 -46 -26 -56 -10 -6 9 -8
9 -8 0 0 -7 -7 -10 -15 -7 -8 4 -15 2 -15 -3 0 -12 -59 -40 -104 -48 -23 -5
-33 -11 -29 -19 4 -6 -1 -5 -10 3 -14 11 -21 11 -42 -3 -16 -10 -34 -14 -50
-10 -20 5 -27 1 -34 -17 -5 -13 -10 -19 -10 -13 -1 17 -35 12 -43 -6 -6 -13
-7 -13 -7 1 -1 17 -61 23 -61 6 0 -6 -3 -8 -6 -5 -3 4 -19 2 -35 -2 -20 -6
-29 -5 -30 3 0 8 -2 8 -6 -1 -2 -6 -9 -9 -15 -6 -6 4 -34 7 -62 7 -28 1 -54 6
-58 11 -5 7 -8 6 -8 -3 0 -10 -3 -11 -13 -2 -8 6 -30 12 -49 13 -20 2 -34 6
-31 10 2 5 0 8 -6 8 -5 0 -13 -4 -16 -10 -4 -6 -13 -6 -23 -1 -9 5 -37 15 -62
22 -25 7 -51 17 -58 22 -7 6 -26 10 -41 9 -16 0 -38 8 -50 19 -11 11 -21 15
-21 8 0 -8 -5 -7 -17 2 -9 8 -18 13 -19 12 -9 -4 -44 10 -44 18 0 5 -7 9 -15
9 -8 0 -23 9 -32 20 -10 11 -23 20 -31 20 -7 0 -38 25 -68 55 -30 31 -54 53
-54 50 0 -30 -99 127 -187 295 -27 52 -61 113 -74 135 -45 73 -108 210 -114
248 -3 21 -10 35 -14 32 -5 -2 -14 2 -21 10 -10 12 -10 18 0 30 7 8 8 15 3 15
-5 0 -9 18 -9 40 1 22 -2 40 -6 40 -5 0 -8 7 -8 16 0 9 -9 18 -20 21 -19 5
-19 6 -3 18 15 11 15 13 -6 25 -15 8 -21 18 -18 30 3 11 1 20 -5 22 -5 2 -11
12 -13 23 -2 11 -4 22 -5 25 -1 3 -2 8 -1 13 0 4 -5 6 -11 5 -8 -2 -14 10 -16
30 -3 29 -11 37 -34 33 -5 0 -8 3 -8 9 0 5 8 10 18 10 15 1 15 2 2 13 -8 7
-17 26 -19 42 -1 17 -8 39 -14 50 -25 47 -15 141 17 149 18 5 19 8 6 16 -15
10 -12 11 23 14 15 1 48 47 41 57 -2 4 1 11 7 15 8 4 9 3 5 -4 -4 -7 -5 -12
-2 -12 11 0 41 35 42 48 3 39 5 45 10 39 4 -4 14 2 24 13 9 10 28 22 42 25 14
4 31 18 37 32 9 20 17 24 35 19 16 -4 26 -1 30 9 3 8 15 15 26 15 11 0 20 5
20 11 0 6 7 9 15 5 8 -3 15 0 15 6 0 6 3 8 7 5 3 -4 12 1 19 11 7 9 16 17 21
17 24 2 63 17 63 25 0 6 7 10 15 10 8 0 15 5 15 10 0 6 7 10 15 10 8 0 15 -4
15 -10 0 -19 23 -10 46 18 13 15 24 23 24 18 0 -5 7 -3 15 4 13 11 29 15 103
24 18 2 42 12 53 22 10 9 19 14 19 11 0 -4 9 2 20 13 12 12 18 26 14 32 -4 7
-3 8 4 4 7 -4 12 -14 12 -22 0 -11 4 -12 19 -4 11 5 29 10 40 10 12 0 21 4 21
9 0 14 29 21 36 9 5 -7 2 -8 -6 -3 -9 5 -11 4 -6 -3 4 -8 15 -8 31 -2 14 5 32
7 42 3 11 -4 14 -3 9 5 -5 8 0 12 12 12 21 0 48 25 35 32 -4 3 -3 3 4 2 6 -2
17 4 24 12 10 12 13 12 23 0 13 -16 56 -28 56 -15 0 5 3 8 8 8 20 -3 32 2 26
12 -4 8 3 9 23 5 24 -6 37 -1 64 21 18 15 30 22 25 16 -4 -8 -1 -13 8 -13 9 0
16 9 16 20 0 11 5 20 11 20 5 0 7 -5 3 -11 -4 -8 1 -9 17 -3 13 4 29 6 34 6
52 -8 60 -6 57 11 -2 13 4 17 25 18 15 0 56 1 90 2 55 2 66 6 88 30 31 32 95
67 127 67 13 0 31 7 42 15 12 9 25 11 35 6 9 -5 21 -11 26 -13z m-445 -110 c0
-4 -4 -8 -9 -8 -6 0 -12 4 -15 8 -3 5 1 9 9 9 8 0 15 -4 15 -9z m-565 -148
c-3 -5 -14 -10 -23 -10 -15 0 -15 2 -2 10 20 13 33 13 25 0z m1540 -230 c3 -5
1 -10 -4 -10 -6 0 -11 5 -11 10 0 6 2 10 4 10 3 0 8 -4 11 -10z m630 -20 c3
-5 2 -10 -4 -10 -5 0 -13 5 -16 10 -3 6 -2 10 4 10 5 0 13 -4 16 -10z m-75
-860 c0 -5 -7 -10 -16 -10 -8 0 -12 5 -9 10 3 6 10 10 16 10 5 0 9 -4 9 -10z"/>
<path d="M2500 3283 c0 -5 -10 -15 -22 -21 -13 -6 -18 -11 -12 -11 16 -1 50
27 41 35 -4 4 -7 3 -7 -3z"/>
<path d="M2413 3202 c-32 -5 -34 -26 -3 -44 25 -14 28 -14 37 1 14 23 -5 47
-34 43z"/>
<path d="M2317 2963 c-4 -6 0 -13 8 -17 8 -3 17 0 21 6 4 6 3 8 -4 4 -5 -3
-12 -1 -14 6 -3 8 -6 9 -11 1z"/>
<path d="M2630 2490 c0 -5 8 -10 18 -10 14 0 15 -2 2 -10 -13 -8 -12 -10 3
-10 10 0 16 -4 13 -8 -2 -4 4 -8 15 -8 17 0 16 3 -8 28 -28 29 -43 35 -43 18z"/>
<path d="M2306 2413 c-6 -14 -5 -15 5 -6 7 7 10 15 7 18 -3 3 -9 -2 -12 -12z"/>
<path d="M2140 2362 c0 -5 7 -15 15 -22 8 -7 15 -8 15 -2 0 5 -7 15 -15 22 -8
7 -15 8 -15 2z"/>
<path d="M3235 2360 c8 -13 -31 -50 -55 -50 -13 0 -18 -5 -14 -15 4 -9 0 -15
-8 -15 -8 0 -23 -9 -33 -20 -10 -11 -20 -18 -23 -15 -3 2 -18 -12 -33 -32 -24
-29 -27 -39 -17 -52 10 -13 10 -14 -2 -3 -17 15 -40 16 -40 1 0 -5 5 -7 10 -4
15 10 12 -31 -4 -44 -15 -12 -28 -74 -14 -65 15 10 8 -9 -9 -23 -10 -8 -12
-12 -5 -8 6 3 12 3 12 0 0 -3 -13 -11 -29 -16 -21 -8 -29 -17 -30 -37 0 -15
-2 -52 -3 -82 -2 -30 1 -61 7 -69 7 -10 7 -13 -1 -8 -7 4 -10 -13 -10 -51 0
-31 -3 -84 -7 -117 -7 -63 -3 -77 25 -88 12 -4 19 0 23 14 4 10 10 17 15 14 5
-3 11 4 15 15 3 11 12 20 19 20 8 0 19 7 26 15 7 8 22 15 35 15 29 0 37 10 22
28 -10 13 -9 15 6 9 9 -3 17 -3 17 2 0 13 69 43 80 36 6 -4 10 -3 9 2 -3 20 2
44 9 39 11 -7 36 15 57 52 11 17 23 32 27 32 4 0 8 8 8 18 0 9 12 26 27 37 49
35 81 77 88 112 3 18 9 32 13 29 4 -2 7 22 6 55 0 32 3 59 8 59 5 0 6 5 2 11
-8 13 -16 72 -15 107 0 12 -3 22 -8 22 -5 0 -12 14 -16 30 -7 33 -10 33 -97
31 -31 0 -60 4 -63 9 -3 6 -13 10 -21 10 -8 0 -13 -4 -9 -10z m-250 -530 c-3
-5 -12 -10 -18 -10 -7 0 -6 4 3 10 19 12 23 12 15 0z m195 -74 c0 -3 -4 -8
-10 -11 -5 -3 -10 -1 -10 4 0 6 5 11 10 11 6 0 10 -2 10 -4z m30 -6 c0 -5 -4
-10 -10 -10 -5 0 -10 5 -10 10 0 6 5 10 10 10 6 0 10 -4 10 -10z m-224 -115
c-5 -13 -8 -14 -20 -3 -12 11 -12 14 3 19 20 8 25 4 17 -16z"/>
<path d="M1875 2341 c-3 -5 -1 -12 5 -16 5 -3 10 1 10 9 0 18 -6 21 -15 7z"/>
<path d="M2080 2339 c0 -6 -8 -9 -18 -7 -11 3 -30 -1 -43 -8 -31 -17 -11 -18
64 -3 31 7 54 16 51 20 -8 13 -54 11 -54 -2z"/>
<path d="M2580 2341 c0 -6 4 -12 8 -15 5 -3 9 1 9 9 0 8 -4 15 -9 15 -4 0 -8
-4 -8 -9z"/>
<path d="M1808 2334 c-3 -5 3 -17 12 -27 14 -15 20 -16 26 -5 4 7 3 9 -1 5 -5
-4 -14 2 -21 14 -6 12 -13 18 -16 13z"/>
<path d="M1647 2301 c3 -11 1 -22 -3 -22 -5 -1 -20 -3 -34 -5 -14 -3 -44 -5
-67 -6 -24 -1 -43 -5 -43 -9 0 -4 -13 -9 -29 -11 -17 -2 -28 -1 -25 4 3 4 -1
8 -9 8 -10 0 -13 -7 -10 -20 6 -24 -9 -26 -27 -5 -8 10 -17 12 -24 6 -6 -5
-25 -8 -41 -6 -17 1 -33 -2 -37 -8 -3 -6 -20 -10 -37 -10 -16 0 -28 -4 -25 -9
3 -4 -2 -5 -10 -2 -11 4 -16 0 -16 -10 0 -9 7 -16 16 -16 9 0 14 -7 12 -17 -2
-12 -13 -18 -30 -18 -21 -1 -25 2 -18 15 7 13 4 16 -13 16 -22 -1 -47 -34 -47
-62 0 -10 -7 -13 -26 -8 -17 4 -29 2 -34 -6 -4 -7 -13 -9 -19 -6 -6 4 -9 12
-6 17 3 5 -1 6 -9 3 -9 -3 -16 -11 -16 -16 0 -6 -7 -7 -16 -4 -18 7 -113 -37
-131 -61 -6 -8 -16 -12 -22 -8 -6 3 -11 2 -11 -3 0 -4 -9 -18 -20 -30 -12 -12
-17 -22 -13 -22 5 0 14 -10 22 -21 11 -18 11 -23 -1 -30 -20 -13 -38 -11 -38
6 0 8 8 15 17 15 13 0 14 3 5 12 -9 9 -15 8 -27 -8 -15 -20 -20 -48 -7 -40 5
3 22 -2 38 -10 21 -11 43 -14 83 -9 34 4 51 3 47 -3 -3 -6 9 -10 29 -10 23 0
35 5 35 14 0 8 5 14 10 14 6 0 10 -6 10 -14 0 -15 88 -28 97 -13 2 4 9 4 15 1
17 -11 78 -13 78 -3 0 5 18 7 39 5 22 -2 52 2 68 11 15 8 29 10 31 5 2 -6 25
-5 60 3 48 11 97 17 234 28 9 1 14 5 12 9 -3 4 -2 9 3 9 4 1 17 3 28 5 11 1
47 9 80 17 33 8 86 20 118 27 31 6 57 16 57 21 0 5 9 9 21 9 11 0 27 7 36 16
14 14 14 16 -6 21 -26 7 -27 18 -3 27 9 3 23 9 30 12 8 4 10 0 6 -10 -7 -19
16 -51 36 -51 8 1 25 6 37 13 12 7 29 12 37 12 9 0 16 5 16 11 0 5 4 8 9 5 5
-4 7 3 4 13 -3 12 4 28 18 42 l22 22 -24 -6 c-15 -4 -30 0 -41 10 -14 13 -20
13 -33 3 -8 -7 -26 -10 -40 -8 -14 3 -25 1 -25 -5 0 -6 -3 -8 -6 -4 -3 3 -1
14 5 24 7 12 10 14 11 4 0 -10 8 -7 27 10 14 13 24 20 21 14 -4 -6 11 -10 38
-10 24 0 44 3 44 6 0 9 49 22 83 22 15 0 27 4 27 8 0 5 -49 7 -109 5 -77 -3
-111 -1 -114 7 -3 9 -8 9 -19 -1 -9 -7 -22 -10 -29 -7 -8 3 -38 -1 -67 -9 -30
-7 -55 -9 -58 -4 -3 5 -13 6 -22 4 -35 -11 -162 -15 -162 -5 0 6 -5 7 -10 4
-6 -4 -8 -10 -5 -15 2 -4 -8 -8 -23 -9 -53 -2 -70 -5 -66 -13 3 -4 -6 -8 -20
-8 -14 0 -34 -8 -44 -18 -25 -25 -46 -32 -63 -21 -11 7 -9 10 9 15 12 4 22 11
22 16 0 10 -8 8 -62 -9 -13 -4 -18 0 -18 15 0 21 42 42 84 42 12 0 26 4 32 10
12 12 53 15 77 5 13 -5 18 -4 17 6 -4 25 0 40 9 35 4 -3 16 3 26 14 17 19 17
20 -1 20 -11 0 -25 5 -31 11 -9 9 -10 7 -6 -10z m-312 -91 c-3 -5 -10 -10 -16
-10 -5 0 -9 5 -9 10 0 6 7 10 16 10 8 0 12 -4 9 -10z m45 -6 c0 -10 -6 -14
-15 -10 -8 3 -15 1 -15 -4 0 -6 -5 -10 -10 -10 -6 0 -5 8 2 20 15 24 38 26 38
4z m-50 -55 c0 -5 -4 -9 -10 -9 -5 0 -10 7 -10 16 0 8 5 12 10 9 6 -3 10 -10
10 -16z m473 -22 c-5 -9 -17 -11 -33 -7 l-25 7 28 13 c15 7 28 18 28 24 1 6 3
3 6 -6 2 -10 1 -23 -4 -31z m197 24 c0 -5 -7 -11 -15 -15 -9 -3 -15 0 -15 9 0
8 7 15 15 15 8 0 15 -4 15 -9z m-380 -16 c0 -8 0 -18 1 -22 0 -4 -3 -9 -8 -10
-4 -2 -8 8 -8 22 0 14 3 25 8 25 4 0 7 -7 7 -15z m-160 -10 c0 -8 -7 -15 -15
-15 -16 0 -20 12 -8 23 11 12 23 8 23 -8z m460 -1 c0 -8 -5 -12 -10 -9 -6 4
-8 11 -5 16 9 14 15 11 15 -7z m-720 -20 c0 -9 -5 -12 -12 -8 -7 5 -10 1 -6
-12 4 -17 -1 -19 -44 -21 -26 -1 -48 1 -48 5 1 16 17 27 40 27 14 0 31 6 38
13 18 17 32 15 32 -4z m118 4 c-6 -17 -36 -34 -44 -25 -4 4 1 14 12 22 23 18
37 19 32 3z m355 -8 c3 -11 1 -18 -4 -14 -5 3 -9 12 -9 20 0 20 7 17 13 -6z
m427 -5 c11 -13 10 -14 -3 -10 -8 4 -18 2 -22 -4 -3 -6 -10 -11 -15 -11 -6 0
-2 9 7 20 21 24 18 23 33 5z m-865 -5 c3 -5 1 -10 -4 -10 -6 0 -11 5 -11 10 0
6 2 10 4 10 3 0 8 -4 11 -10z m521 -5 c-3 -9 0 -15 10 -15 8 0 12 -5 9 -11 -4
-6 -14 -8 -22 -4 -13 4 -14 3 -3 -10 10 -12 10 -15 -3 -15 -9 0 -18 4 -22 10
-3 5 -12 7 -20 3 -8 -3 -15 0 -15 6 0 6 12 14 26 17 16 4 23 12 20 20 -3 8 1
14 10 14 10 0 14 -6 10 -15z m-406 -5 c0 -5 -4 -10 -10 -10 -5 0 -10 5 -10 10
0 6 5 10 10 10 6 0 10 -4 10 -10z m484 1 c-10 -11 70 -29 91 -21 24 9 38 3 29
-11 -3 -5 -18 -9 -34 -9 -18 0 -30 -6 -32 -16 -2 -13 -8 -12 -29 8 -15 14 -34
28 -43 31 -22 9 -20 26 4 24 10 -1 17 -3 14 -6z m-560 -35 c-3 -9 -10 -13 -15
-10 -5 3 -3 11 4 19 15 16 19 13 11 -9z m816 14 c0 -5 -5 -10 -11 -10 -5 0 -7
5 -4 10 3 6 8 10 11 10 2 0 4 -4 4 -10z m-1150 -36 c0 -8 -4 -12 -10 -9 -5 3
-10 10 -10 16 0 5 5 9 10 9 6 0 10 -7 10 -16z m526 -52 c-4 -3 -11 -1 -18 6
-8 8 -8 15 3 28 13 16 14 16 17 -5 2 -13 1 -25 -2 -29z m263 39 c9 -6 10 -11
2 -15 -13 -8 -31 1 -31 15 0 11 11 11 29 0z m-857 -53 c-20 -20 -33 -3 -15 19
15 18 19 20 21 7 2 -9 -1 -21 -6 -26z m268 20 c0 -6 -7 -7 -16 -4 -9 3 -18 6
-20 6 -3 0 -3 4 1 10 7 11 35 2 35 -12z m530 18 c0 -11 -19 -15 -25 -6 -3 5 1
10 9 10 9 0 16 -2 16 -4z m-620 -16 c0 -5 -4 -10 -10 -10 -5 0 -10 5 -10 10 0
6 5 10 10 10 6 0 10 -4 10 -10z m570 -25 c10 -12 10 -15 -4 -15 -9 0 -16 7
-16 15 0 8 2 15 4 15 2 0 9 -7 16 -15z m-444 -20 c2 -28 -11 -33 -20 -8 -4 9
-1 20 6 25 7 4 13 8 13 8 0 0 1 -11 1 -25z m-46 -25 c0 -5 -5 -10 -11 -10 -5
0 -7 5 -4 10 3 6 8 10 11 10 2 0 4 -4 4 -10z m120 0 c0 -5 -7 -10 -15 -10 -8
0 -15 5 -15 10 0 6 7 10 15 10 8 0 15 -4 15 -10z"/>
<path d="M1757 2309 c7 -7 15 -10 18 -7 3 3 -2 9 -12 12 -14 6 -15 5 -6 -5z"/>
<path d="M1970 2310 c-9 -6 -10 -10 -3 -10 6 0 15 5 18 10 8 12 4 12 -15 0z"/>
<path d="M1520 2291 c0 -18 3 -20 19 -11 24 12 36 30 22 30 -6 0 -11 -5 -11
-11 0 -8 -5 -8 -15 1 -13 10 -15 9 -15 -9z"/>
<path d="M2571 2294 c0 -11 3 -14 6 -6 3 7 2 16 -1 19 -3 4 -6 -2 -5 -13z"/>
<path d="M2520 2270 c0 -5 7 -7 15 -4 8 4 15 8 15 10 0 2 -7 4 -15 4 -8 0 -15
-4 -15 -10z"/>
<path d="M2392 2216 c1 -10 -3 -21 -11 -24 -9 -3 -12 0 -9 10 8 20 -22 20 -44
0 -10 -8 -26 -12 -37 -9 -18 4 -61 -27 -50 -37 8 -8 94 26 108 42 12 15 13 15
8 -5 -6 -28 3 -29 34 -4 20 16 22 22 11 33 -11 11 -13 10 -10 -6z"/>
<path d="M2435 2210 c-3 -5 -2 -10 4 -10 5 0 13 5 16 10 3 6 2 10 -4 10 -5 0
-13 -4 -16 -10z"/>
<path d="M560 1981 c0 -5 7 -12 16 -15 14 -5 15 -4 4 9 -14 17 -20 19 -20 6z"/>
<path d="M606 1952 c-3 -5 3 -21 13 -36 13 -19 20 -24 24 -14 4 8 6 6 6 -6 1
-16 3 -17 18 -5 11 9 14 10 9 2 -5 -9 -2 -11 8 -7 20 8 20 20 0 28 -8 3 -12
11 -8 17 4 8 3 9 -4 5 -6 -4 -23 -4 -37 0 -20 5 -23 9 -13 15 9 6 9 9 1 9 -6
0 -14 -4 -17 -8z"/>
<path d="M744 1878 c3 -15 26 -23 26 -8 0 6 -4 9 -9 6 -5 -4 -12 -1 -14 4 -3
6 -4 5 -3 -2z"/>
<path d="M806 1857 c3 -10 9 -15 12 -12 3 3 0 11 -7 18 -10 9 -11 8 -5 -6z"/>
<path d="M1025 1840 c3 -5 12 -7 20 -3 21 7 19 13 -6 13 -11 0 -18 -4 -14 -10z"/>
<path d="M1907 1713 c-3 -5 6 -9 20 -10 19 -1 22 1 12 8 -17 11 -26 11 -32 2z"/>
<path d="M1406 1565 c-3 -9 0 -15 9 -15 9 0 12 6 9 15 -4 8 -7 15 -9 15 -2 0
-5 -7 -9 -15z"/>
<path d="M1360 1539 c0 -5 5 -7 10 -4 6 3 10 8 10 11 0 2 -4 4 -10 4 -5 0 -10
-5 -10 -11z"/>
<path d="M2069 1437 c7 -10 20 -17 28 -17 8 0 11 -5 7 -12 -4 -7 -3 -8 4 -4
17 11 15 14 -20 32 -30 16 -32 16 -19 1z"/>
<path d="M1040 1401 c0 -6 4 -13 10 -16 6 -3 7 1 4 9 -7 18 -14 21 -14 7z"/>
<path d="M2085 1380 c-3 -6 1 -7 9 -4 18 7 21 14 7 14 -6 0 -13 -4 -16 -10z"/>
<path d="M1315 1300 c3 -5 8 -10 11 -10 2 0 4 5 4 10 0 6 -5 10 -11 10 -5 0
-7 -4 -4 -10z"/>
<path d="M1020 1270 c0 -5 5 -10 11 -10 5 0 7 5 4 10 -3 6 -8 10 -11 10 -2 0
-4 -4 -4 -10z"/>
<path d="M1950 1156 c0 -2 7 -7 16 -10 8 -3 12 -2 9 4 -6 10 -25 14 -25 6z"/>
<path d="M1009 1041 c-13 -11 -18 -20 -11 -21 6 0 12 5 12 11 0 5 4 8 9 4 5
-3 13 0 16 6 13 20 -2 20 -26 0z"/>
<path d="M1030 1020 c-13 -8 -12 -10 3 -10 9 0 17 5 17 10 0 12 -1 12 -20 0z"/>
<path d="M1938 908 c6 -6 18 -8 28 -6 14 3 12 5 -9 10 -19 3 -25 2 -19 -4z"/>
<path d="M1750 790 c-12 -8 -11 -10 8 -10 12 0 22 -4 22 -10 0 -5 10 -10 21
-10 18 0 19 2 9 15 -7 8 -16 12 -21 9 -5 -3 -9 0 -9 5 0 13 -10 14 -30 1z"/>
<path d="M1992 582 c-8 -6 -2 -9 18 -9 16 0 30 4 30 9 0 10 -31 10 -48 0z"/>
<path d="M1885 560 c-8 -13 5 -13 25 0 13 8 13 10 -2 10 -9 0 -20 -4 -23 -10z"/>
</g>
</svg>
